<mxfile host="app.diagrams.net" modified="2022-09-28T07:48:34.769Z" agent="5.0 (X11; Linux x86_64) AppleWebKit/537.36 (KHTML, like Gecko) Chrome/105.0.0.0 Safari/537.36 Edg/105.0.1343.42" etag="PqXY7vHlh8Oy-npaQthv" version="20.3.7" type="github">
  <diagram id="SJiAye9ETBUr3j29_bJD" name="Page-1">
    <mxGraphModel dx="2098" dy="1826" grid="1" gridSize="10" guides="1" tooltips="1" connect="1" arrows="1" fold="1" page="1" pageScale="1" pageWidth="850" pageHeight="1100" math="0" shadow="0">
      <root>
        <mxCell id="0" />
        <mxCell id="1" parent="0" />
        <mxCell id="DKW9mziVkJQBDlvkcrKl-22" style="edgeStyle=orthogonalEdgeStyle;rounded=0;orthogonalLoop=1;jettySize=auto;html=1;exitX=1;exitY=0.5;exitDx=0;exitDy=0;entryX=0;entryY=0.5;entryDx=0;entryDy=0;strokeColor=default;endArrow=none;endFill=0;" parent="1" source="DKW9mziVkJQBDlvkcrKl-5" target="DKW9mziVkJQBDlvkcrKl-8" edge="1">
          <mxGeometry relative="1" as="geometry" />
        </mxCell>
        <mxCell id="DKW9mziVkJQBDlvkcrKl-23" style="edgeStyle=orthogonalEdgeStyle;rounded=0;orthogonalLoop=1;jettySize=auto;html=1;entryX=0;entryY=0.5;entryDx=0;entryDy=0;strokeColor=default;endArrow=none;endFill=0;" parent="1" source="DKW9mziVkJQBDlvkcrKl-5" target="DKW9mziVkJQBDlvkcrKl-19" edge="1">
          <mxGeometry relative="1" as="geometry" />
        </mxCell>
        <mxCell id="DKW9mziVkJQBDlvkcrKl-24" style="edgeStyle=orthogonalEdgeStyle;rounded=0;orthogonalLoop=1;jettySize=auto;html=1;entryX=0;entryY=0.5;entryDx=0;entryDy=0;strokeColor=default;endArrow=none;endFill=0;" parent="1" source="DKW9mziVkJQBDlvkcrKl-5" target="DKW9mziVkJQBDlvkcrKl-18" edge="1">
          <mxGeometry relative="1" as="geometry" />
        </mxCell>
        <mxCell id="DKW9mziVkJQBDlvkcrKl-25" style="edgeStyle=orthogonalEdgeStyle;rounded=0;orthogonalLoop=1;jettySize=auto;html=1;entryX=0;entryY=0.5;entryDx=0;entryDy=0;strokeColor=default;endArrow=none;endFill=0;" parent="1" source="DKW9mziVkJQBDlvkcrKl-5" target="DKW9mziVkJQBDlvkcrKl-17" edge="1">
          <mxGeometry relative="1" as="geometry" />
        </mxCell>
        <mxCell id="DKW9mziVkJQBDlvkcrKl-26" style="edgeStyle=orthogonalEdgeStyle;rounded=0;orthogonalLoop=1;jettySize=auto;html=1;entryX=0;entryY=0.5;entryDx=0;entryDy=0;strokeColor=default;endArrow=none;endFill=0;" parent="1" source="DKW9mziVkJQBDlvkcrKl-5" target="DKW9mziVkJQBDlvkcrKl-21" edge="1">
          <mxGeometry relative="1" as="geometry" />
        </mxCell>
        <mxCell id="DKW9mziVkJQBDlvkcrKl-27" style="edgeStyle=orthogonalEdgeStyle;rounded=0;orthogonalLoop=1;jettySize=auto;html=1;entryX=0;entryY=0.5;entryDx=0;entryDy=0;strokeColor=default;endArrow=none;endFill=0;" parent="1" source="DKW9mziVkJQBDlvkcrKl-5" target="DKW9mziVkJQBDlvkcrKl-20" edge="1">
          <mxGeometry relative="1" as="geometry" />
        </mxCell>
        <mxCell id="prErsED2F1gZ2xRUEQzW-5" style="edgeStyle=orthogonalEdgeStyle;rounded=0;orthogonalLoop=1;jettySize=auto;html=1;exitX=0;exitY=0;exitDx=0;exitDy=0;entryX=0.5;entryY=1;entryDx=0;entryDy=0;" edge="1" parent="1" source="DKW9mziVkJQBDlvkcrKl-5" target="prErsED2F1gZ2xRUEQzW-3">
          <mxGeometry relative="1" as="geometry">
            <Array as="points">
              <mxPoint x="-110" y="390" />
            </Array>
          </mxGeometry>
        </mxCell>
        <mxCell id="DKW9mziVkJQBDlvkcrKl-5" value="Voluntario" style="whiteSpace=wrap;html=1;align=center;" parent="1" vertex="1">
          <mxGeometry x="190" y="390" width="180" height="80" as="geometry" />
        </mxCell>
        <mxCell id="DKW9mziVkJQBDlvkcrKl-8" value="Nombre" style="ellipse;whiteSpace=wrap;html=1;align=center;" parent="1" vertex="1">
          <mxGeometry x="450" y="410" width="90" height="40" as="geometry" />
        </mxCell>
        <mxCell id="DKW9mziVkJQBDlvkcrKl-17" value="DNI" style="ellipse;whiteSpace=wrap;html=1;align=center;" parent="1" vertex="1">
          <mxGeometry x="450" y="560" width="90" height="40" as="geometry" />
        </mxCell>
        <mxCell id="DKW9mziVkJQBDlvkcrKl-18" value="Ingreso" style="ellipse;whiteSpace=wrap;html=1;align=center;" parent="1" vertex="1">
          <mxGeometry x="450" y="510" width="90" height="40" as="geometry" />
        </mxCell>
        <mxCell id="DKW9mziVkJQBDlvkcrKl-19" value="Apellido" style="ellipse;whiteSpace=wrap;html=1;align=center;" parent="1" vertex="1">
          <mxGeometry x="450" y="460" width="90" height="40" as="geometry" />
        </mxCell>
        <mxCell id="DKW9mziVkJQBDlvkcrKl-20" value="Contacto" style="ellipse;whiteSpace=wrap;html=1;align=center;" parent="1" vertex="1">
          <mxGeometry x="450" y="660" width="90" height="40" as="geometry" />
        </mxCell>
        <mxCell id="DKW9mziVkJQBDlvkcrKl-21" value="Areas" style="ellipse;whiteSpace=wrap;html=1;align=center;" parent="1" vertex="1">
          <mxGeometry x="450" y="610" width="90" height="40" as="geometry" />
        </mxCell>
        <mxCell id="DKW9mziVkJQBDlvkcrKl-28" style="edgeStyle=orthogonalEdgeStyle;rounded=0;orthogonalLoop=1;jettySize=auto;html=1;exitX=1;exitY=0.5;exitDx=0;exitDy=0;entryX=0;entryY=0.5;entryDx=0;entryDy=0;strokeColor=default;endArrow=none;endFill=0;" parent="1" source="DKW9mziVkJQBDlvkcrKl-34" target="DKW9mziVkJQBDlvkcrKl-35" edge="1">
          <mxGeometry relative="1" as="geometry" />
        </mxCell>
        <mxCell id="2UVXopYE75NdRU-mbKeI-16" value="" style="edgeStyle=orthogonalEdgeStyle;rounded=0;orthogonalLoop=1;jettySize=auto;html=1;exitX=1;exitY=1;exitDx=0;exitDy=0;" parent="1" source="DKW9mziVkJQBDlvkcrKl-34" target="2UVXopYE75NdRU-mbKeI-15" edge="1">
          <mxGeometry relative="1" as="geometry" />
        </mxCell>
        <mxCell id="2UVXopYE75NdRU-mbKeI-22" value="" style="edgeStyle=orthogonalEdgeStyle;rounded=0;orthogonalLoop=1;jettySize=auto;html=1;" parent="1" source="DKW9mziVkJQBDlvkcrKl-34" target="2UVXopYE75NdRU-mbKeI-21" edge="1">
          <mxGeometry relative="1" as="geometry" />
        </mxCell>
        <mxCell id="DKW9mziVkJQBDlvkcrKl-34" value="Area" style="whiteSpace=wrap;html=1;align=center;" parent="1" vertex="1">
          <mxGeometry x="-200" y="-270" width="180" height="80" as="geometry" />
        </mxCell>
        <mxCell id="DKW9mziVkJQBDlvkcrKl-35" value="Nombre" style="ellipse;whiteSpace=wrap;html=1;align=center;" parent="1" vertex="1">
          <mxGeometry y="-250" width="90" height="40" as="geometry" />
        </mxCell>
        <mxCell id="DKW9mziVkJQBDlvkcrKl-41" style="edgeStyle=orthogonalEdgeStyle;rounded=0;orthogonalLoop=1;jettySize=auto;html=1;exitX=1;exitY=0.5;exitDx=0;exitDy=0;entryX=0;entryY=0.5;entryDx=0;entryDy=0;strokeColor=default;endArrow=none;endFill=0;" parent="1" source="DKW9mziVkJQBDlvkcrKl-47" target="DKW9mziVkJQBDlvkcrKl-48" edge="1">
          <mxGeometry relative="1" as="geometry" />
        </mxCell>
        <mxCell id="DKW9mziVkJQBDlvkcrKl-42" style="edgeStyle=orthogonalEdgeStyle;rounded=0;orthogonalLoop=1;jettySize=auto;html=1;entryX=0;entryY=0.5;entryDx=0;entryDy=0;strokeColor=default;endArrow=none;endFill=0;" parent="1" source="DKW9mziVkJQBDlvkcrKl-47" target="DKW9mziVkJQBDlvkcrKl-51" edge="1">
          <mxGeometry relative="1" as="geometry" />
        </mxCell>
        <mxCell id="DKW9mziVkJQBDlvkcrKl-43" style="edgeStyle=orthogonalEdgeStyle;rounded=0;orthogonalLoop=1;jettySize=auto;html=1;entryX=0;entryY=0.5;entryDx=0;entryDy=0;strokeColor=default;endArrow=none;endFill=0;" parent="1" source="DKW9mziVkJQBDlvkcrKl-47" target="DKW9mziVkJQBDlvkcrKl-50" edge="1">
          <mxGeometry relative="1" as="geometry" />
        </mxCell>
        <mxCell id="DKW9mziVkJQBDlvkcrKl-57" style="edgeStyle=orthogonalEdgeStyle;rounded=0;orthogonalLoop=1;jettySize=auto;html=1;entryX=0;entryY=0.5;entryDx=0;entryDy=0;endArrow=none;endFill=0;strokeColor=default;" parent="1" source="DKW9mziVkJQBDlvkcrKl-47" target="DKW9mziVkJQBDlvkcrKl-54" edge="1">
          <mxGeometry relative="1" as="geometry" />
        </mxCell>
        <mxCell id="DKW9mziVkJQBDlvkcrKl-58" style="edgeStyle=orthogonalEdgeStyle;rounded=0;orthogonalLoop=1;jettySize=auto;html=1;entryX=0;entryY=0.5;entryDx=0;entryDy=0;endArrow=none;endFill=0;strokeColor=default;" parent="1" source="DKW9mziVkJQBDlvkcrKl-47" target="DKW9mziVkJQBDlvkcrKl-55" edge="1">
          <mxGeometry relative="1" as="geometry" />
        </mxCell>
        <mxCell id="prErsED2F1gZ2xRUEQzW-4" value="" style="edgeStyle=orthogonalEdgeStyle;rounded=0;orthogonalLoop=1;jettySize=auto;html=1;" edge="1" parent="1" source="DKW9mziVkJQBDlvkcrKl-47" target="prErsED2F1gZ2xRUEQzW-3">
          <mxGeometry relative="1" as="geometry" />
        </mxCell>
        <mxCell id="DKW9mziVkJQBDlvkcrKl-47" value="Actividad" style="whiteSpace=wrap;html=1;align=center;" parent="1" vertex="1">
          <mxGeometry x="-200" y="60" width="180" height="80" as="geometry" />
        </mxCell>
        <mxCell id="DKW9mziVkJQBDlvkcrKl-48" value="F.Creación" style="ellipse;whiteSpace=wrap;html=1;align=center;" parent="1" vertex="1">
          <mxGeometry x="65" y="80" width="90" height="40" as="geometry" />
        </mxCell>
        <mxCell id="DKW9mziVkJQBDlvkcrKl-50" value="Cancelada" style="ellipse;whiteSpace=wrap;html=1;align=center;" parent="1" vertex="1">
          <mxGeometry x="65" y="180" width="90" height="40" as="geometry" />
        </mxCell>
        <mxCell id="DKW9mziVkJQBDlvkcrKl-51" value="F.Realización" style="ellipse;whiteSpace=wrap;html=1;align=center;" parent="1" vertex="1">
          <mxGeometry x="65" y="130" width="90" height="40" as="geometry" />
        </mxCell>
        <mxCell id="DKW9mziVkJQBDlvkcrKl-54" value="Título" style="ellipse;whiteSpace=wrap;html=1;align=center;" parent="1" vertex="1">
          <mxGeometry x="65" y="230" width="90" height="40" as="geometry" />
        </mxCell>
        <mxCell id="DKW9mziVkJQBDlvkcrKl-55" value="Desc." style="ellipse;whiteSpace=wrap;html=1;align=center;" parent="1" vertex="1">
          <mxGeometry x="65" y="280" width="90" height="40" as="geometry" />
        </mxCell>
        <mxCell id="DKW9mziVkJQBDlvkcrKl-64" style="edgeStyle=orthogonalEdgeStyle;rounded=0;orthogonalLoop=1;jettySize=auto;html=1;entryX=0;entryY=0.5;entryDx=0;entryDy=0;strokeColor=default;endArrow=none;endFill=0;" parent="1" source="DKW9mziVkJQBDlvkcrKl-68" target="DKW9mziVkJQBDlvkcrKl-71" edge="1">
          <mxGeometry relative="1" as="geometry" />
        </mxCell>
        <mxCell id="2UVXopYE75NdRU-mbKeI-26" value="" style="edgeStyle=orthogonalEdgeStyle;rounded=0;orthogonalLoop=1;jettySize=auto;html=1;exitX=1;exitY=1;exitDx=0;exitDy=0;" parent="1" source="DKW9mziVkJQBDlvkcrKl-68" target="2UVXopYE75NdRU-mbKeI-25" edge="1">
          <mxGeometry relative="1" as="geometry" />
        </mxCell>
        <mxCell id="2UVXopYE75NdRU-mbKeI-29" value="" style="edgeStyle=orthogonalEdgeStyle;rounded=0;orthogonalLoop=1;jettySize=auto;html=1;" parent="1" source="DKW9mziVkJQBDlvkcrKl-68" target="2UVXopYE75NdRU-mbKeI-28" edge="1">
          <mxGeometry relative="1" as="geometry" />
        </mxCell>
        <mxCell id="DKW9mziVkJQBDlvkcrKl-68" value="Asistencia" style="whiteSpace=wrap;html=1;align=center;" parent="1" vertex="1">
          <mxGeometry x="-590" y="-75" width="180" height="80" as="geometry" />
        </mxCell>
        <mxCell id="DKW9mziVkJQBDlvkcrKl-71" value="Estado" style="ellipse;whiteSpace=wrap;html=1;align=center;" parent="1" vertex="1">
          <mxGeometry x="-350" y="-55" width="90" height="40" as="geometry" />
        </mxCell>
        <mxCell id="2UVXopYE75NdRU-mbKeI-12" value="" style="edgeStyle=orthogonalEdgeStyle;rounded=0;orthogonalLoop=1;jettySize=auto;html=1;" parent="1" source="2UVXopYE75NdRU-mbKeI-1" target="2UVXopYE75NdRU-mbKeI-11" edge="1">
          <mxGeometry relative="1" as="geometry" />
        </mxCell>
        <mxCell id="2UVXopYE75NdRU-mbKeI-1" value="Coordinador" style="whiteSpace=wrap;html=1;" parent="1" vertex="1">
          <mxGeometry x="60" y="-50" width="120" height="60" as="geometry" />
        </mxCell>
        <mxCell id="2UVXopYE75NdRU-mbKeI-14" style="edgeStyle=orthogonalEdgeStyle;rounded=0;orthogonalLoop=1;jettySize=auto;html=1;" parent="1" source="2UVXopYE75NdRU-mbKeI-11" target="DKW9mziVkJQBDlvkcrKl-5" edge="1">
          <mxGeometry relative="1" as="geometry" />
        </mxCell>
        <mxCell id="2UVXopYE75NdRU-mbKeI-11" value="0:1&lt;br&gt;Es un" style="rhombus;whiteSpace=wrap;html=1;" parent="1" vertex="1">
          <mxGeometry x="240" y="-45" width="80" height="50" as="geometry" />
        </mxCell>
        <mxCell id="2UVXopYE75NdRU-mbKeI-17" style="edgeStyle=orthogonalEdgeStyle;rounded=0;orthogonalLoop=1;jettySize=auto;html=1;entryX=0;entryY=0.5;entryDx=0;entryDy=0;exitX=0.5;exitY=1;exitDx=0;exitDy=0;" parent="1" source="2UVXopYE75NdRU-mbKeI-15" target="2UVXopYE75NdRU-mbKeI-1" edge="1">
          <mxGeometry relative="1" as="geometry" />
        </mxCell>
        <mxCell id="2UVXopYE75NdRU-mbKeI-15" value="1:1&lt;br&gt;tiene un" style="rhombus;whiteSpace=wrap;html=1;" parent="1" vertex="1">
          <mxGeometry x="-60" y="-140" width="80" height="70" as="geometry" />
        </mxCell>
        <mxCell id="2UVXopYE75NdRU-mbKeI-24" style="edgeStyle=orthogonalEdgeStyle;rounded=0;orthogonalLoop=1;jettySize=auto;html=1;entryX=0.5;entryY=0;entryDx=0;entryDy=0;" parent="1" source="2UVXopYE75NdRU-mbKeI-21" target="DKW9mziVkJQBDlvkcrKl-47" edge="1">
          <mxGeometry relative="1" as="geometry" />
        </mxCell>
        <mxCell id="2UVXopYE75NdRU-mbKeI-21" value="1:N&lt;br&gt;Tiene" style="rhombus;whiteSpace=wrap;html=1;" parent="1" vertex="1">
          <mxGeometry x="-150" y="-110" width="80" height="80" as="geometry" />
        </mxCell>
        <mxCell id="2UVXopYE75NdRU-mbKeI-27" style="edgeStyle=orthogonalEdgeStyle;rounded=0;orthogonalLoop=1;jettySize=auto;html=1;exitX=1;exitY=0.5;exitDx=0;exitDy=0;entryX=0;entryY=0.5;entryDx=0;entryDy=0;" parent="1" source="2UVXopYE75NdRU-mbKeI-25" target="DKW9mziVkJQBDlvkcrKl-47" edge="1">
          <mxGeometry relative="1" as="geometry" />
        </mxCell>
        <mxCell id="2UVXopYE75NdRU-mbKeI-25" value="1:1&lt;br&gt;es de una" style="rhombus;whiteSpace=wrap;html=1;" parent="1" vertex="1">
          <mxGeometry x="-460" y="67.5" width="100" height="65" as="geometry" />
        </mxCell>
        <mxCell id="2UVXopYE75NdRU-mbKeI-33" style="edgeStyle=orthogonalEdgeStyle;rounded=0;orthogonalLoop=1;jettySize=auto;html=1;" parent="1" source="2UVXopYE75NdRU-mbKeI-28" edge="1">
          <mxGeometry relative="1" as="geometry">
            <mxPoint x="180" y="430" as="targetPoint" />
          </mxGeometry>
        </mxCell>
        <mxCell id="2UVXopYE75NdRU-mbKeI-28" value="1:1&lt;br&gt;corresponde a un" style="rhombus;whiteSpace=wrap;html=1;" parent="1" vertex="1">
          <mxGeometry x="-565" y="380" width="130" height="100" as="geometry" />
        </mxCell>
        <mxCell id="prErsED2F1gZ2xRUEQzW-3" value="N:N&lt;br&gt;tiene" style="rhombus;whiteSpace=wrap;html=1;" vertex="1" parent="1">
          <mxGeometry x="-150" y="260" width="80" height="80" as="geometry" />
        </mxCell>
      </root>
    </mxGraphModel>
  </diagram>
</mxfile>
